<?xml version="1.0" encoding="UTF-8" standalone="no"?><!DOCTYPE svg PUBLIC "-//W3C//DTD SVG 1.1//EN" "http://www.w3.org/Graphics/SVG/1.1/DTD/svg11.dtd"><svg width="100%" height="100%" viewBox="0 0 40 40" version="1.1" xmlns="http://www.w3.org/2000/svg" xmlns:xlink="http://www.w3.org/1999/xlink" xml:space="preserve" style="fill-rule:evenodd;clip-rule:evenodd;stroke-linejoin:round;stroke-miterlimit:1.41421;"><g><circle cx="20" cy="20" r="20" style="fill:#fff;"/><path d="M20.129,0l0.129,0.002l0.129,0.002l0.129,0.003l0.128,0.003l0.129,0.005l0.128,0.005l0.128,0.006l0.127,0.007l0.128,0.008l0.127,0.008l0.127,0.009l0.127,0.01l0.126,0.011l0.127,0.012l0.126,0.012l0.126,0.014l0.125,0.014l0.126,0.014l0.125,0.016l0.125,0.016l0.124,0.017l0.125,0.018l0.124,0.019l0.124,0.019l0.124,0.02l0.123,0.021l0.123,0.022l0.123,0.022l0.123,0.023l0.122,0.024l0.123,0.025l0.121,0.025l0.122,0.026l0.121,0.027l0.121,0.028l0.121,0.028l0.121,0.029l0.12,0.03l0.12,0.03l0.119,0.031l0.12,0.032l0.119,0.033l0.119,0.033l0.118,0.034l0.118,0.035l0.118,0.036l0.118,0.036l0.117,0.037l0.117,0.037l0.116,0.039l0.117,0.039l0.116,0.039l0.115,0.041l0.116,0.041l0.115,0.041l0.114,0.043l0.115,0.043l0.114,0.044l0.113,0.044l0.227,0.091l0.225,0.094l0.223,0.096l0.223,0.099l0.22,0.101l0.22,0.104l0.217,0.107l0.217,0.109l0.215,0.112l0.213,0.114l0.212,0.117l0.21,0.119l0.208,0.122l0.207,0.124l0.206,0.127l0.204,0.129l0.202,0.131l0.2,0.134l0.199,0.136l0.197,0.138l0.195,0.141l0.193,0.142l0.192,0.146l0.19,0.147l0.188,0.15l0.186,0.151l0.184,0.154l0.183,0.157l0.18,0.158l0.179,0.16l0.176,0.163l0.175,0.164l0.173,0.167l0.17,0.169l0.169,0.17l0.167,0.173l0.164,0.175l0.163,0.176l0.16,0.179l0.158,0.18l0.157,0.183l0.154,0.184l0.151,0.186l0.15,0.188l0.147,0.19l0.146,0.192l0.142,0.193l0.141,0.195l0.138,0.197l0.136,0.199l0.134,0.2l0.131,0.202l0.129,0.204l0.127,0.206l0.124,0.207l0.122,0.208l0.119,0.21l0.117,0.212l0.114,0.213l0.112,0.215l0.109,0.217l0.107,0.217l0.104,0.22l0.101,0.22l0.099,0.223l0.096,0.223l0.094,0.225l0.091,0.227l0.044,0.113l0.044,0.114l0.043,0.115l0.043,0.114l0.041,0.115l0.041,0.116l0.041,0.115l0.039,0.116l0.039,0.117l0.039,0.116l0.037,0.117l0.037,0.117l0.036,0.118l0.036,0.118l0.035,0.118l0.034,0.118l0.033,0.119l0.033,0.119l0.032,0.12l0.031,0.119l0.03,0.12l0.03,0.12l0.029,0.121l0.028,0.121l0.028,0.121l0.027,0.121l0.026,0.122l0.025,0.121l0.025,0.123l0.024,0.122l0.023,0.123l0.022,0.123l0.022,0.123l0.021,0.123l0.02,0.124l0.019,0.124l0.019,0.124l0.018,0.125l0.017,0.124l0.016,0.125l0.016,0.125l0.014,0.126l0.014,0.125l0.014,0.126l0.012,0.126l0.012,0.127l0.011,0.126l0.01,0.127l0.009,0.127l0.008,0.127l0.008,0.128l0.007,0.127l0.006,0.128l0.005,0.128l0.005,0.129l0.003,0.128l0.003,0.129l0.002,0.129l0.002,0.129l0,0.129l0,0.129l-0.002,0.129l-0.002,0.129l-0.003,0.129l-0.003,0.128l-0.005,0.129l-0.005,0.128l-0.006,0.128l-0.007,0.127l-0.008,0.128l-0.008,0.127l-0.009,0.127l-0.01,0.127l-0.011,0.126l-0.012,0.127l-0.012,0.126l-0.014,0.126l-0.014,0.125l-0.014,0.126l-0.016,0.125l-0.016,0.125l-0.017,0.124l-0.018,0.125l-0.019,0.124l-0.019,0.124l-0.02,0.124l-0.021,0.123l-0.022,0.123l-0.022,0.123l-0.023,0.123l-0.024,0.122l-0.025,0.123l-0.025,0.121l-0.026,0.122l-0.027,0.121l-0.028,0.121l-0.028,0.121l-0.029,0.121l-0.03,0.12l-0.03,0.12l-0.031,0.119l-0.032,0.12l-0.033,0.119l-0.033,0.119l-0.034,0.118l-0.035,0.118l-0.036,0.118l-0.036,0.118l-0.037,0.117l-0.037,0.117l-0.039,0.116l-0.039,0.117l-0.039,0.116l-0.041,0.115l-0.041,0.116l-0.041,0.115l-0.043,0.114l-0.043,0.115l-0.044,0.114l-0.044,0.113l-0.091,0.227l-0.094,0.225l-0.096,0.223l-0.099,0.223l-0.101,0.22l-0.104,0.22l-0.107,0.217l-0.109,0.217l-0.112,0.215l-0.114,0.213l-0.117,0.212l-0.119,0.21l-0.122,0.208l-0.124,0.207l-0.127,0.206l-0.129,0.204l-0.131,0.202l-0.134,0.2l-0.136,0.199l-0.138,0.197l-0.141,0.195l-0.142,0.193l-0.146,0.192l-0.147,0.19l-0.15,0.188l-0.151,0.186l-0.154,0.184l-0.157,0.183l-0.158,0.18l-0.16,0.179l-0.163,0.176l-0.164,0.175l-0.167,0.173l-0.169,0.17l-0.17,0.169l-0.173,0.167l-0.175,0.164l-0.176,0.163l-0.179,0.16l-0.18,0.158l-0.183,0.157l-0.184,0.154l-0.186,0.151l-0.188,0.15l-0.19,0.147l-0.192,0.146l-0.193,0.142l-0.195,0.141l-0.197,0.138l-0.199,0.136l-0.2,0.134l-0.202,0.131l-0.204,0.129l-0.206,0.127l-0.207,0.124l-0.208,0.122l-0.21,0.119l-0.212,0.117l-0.213,0.114l-0.215,0.112l-0.217,0.109l-0.217,0.107l-0.22,0.104l-0.22,0.101l-0.223,0.099l-0.223,0.096l-0.225,0.094l-0.227,0.091l-0.113,0.044l-0.114,0.044l-0.115,0.043l-0.114,0.043l-0.115,0.041l-0.116,0.041l-0.115,0.041l-0.116,0.039l-0.117,0.039l-0.116,0.039l-0.117,0.037l-0.117,0.037l-0.118,0.036l-0.118,0.036l-0.118,0.035l-0.118,0.034l-0.119,0.033l-0.119,0.033l-0.12,0.032l-0.119,0.031l-0.12,0.03l-0.12,0.03l-0.121,0.029l-0.121,0.028l-0.121,0.028l-0.121,0.027l-0.122,0.026l-0.121,0.025l-0.123,0.025l-0.122,0.024l-0.123,0.023l-0.123,0.022l-0.123,0.022l-0.123,0.021l-0.124,0.02l-0.124,0.019l-0.124,0.019l-0.125,0.018l-0.124,0.017l-0.125,0.016l-0.125,0.016l-0.126,0.014l-0.125,0.014l-0.126,0.014l-0.126,0.012l-0.127,0.012l-0.126,0.011l-0.127,0.01l-0.127,0.009l-0.127,0.008l-0.128,0.008l-0.127,0.007l-0.128,0.006l-0.128,0.005l-0.129,0.005l-0.128,0.003l-0.129,0.003l-0.129,0.002l-0.129,0.002l-0.129,0l-0.129,0l-0.129,-0.002l-0.129,-0.002l-0.129,-0.003l-0.128,-0.003l-0.129,-0.005l-0.128,-0.005l-0.128,-0.006l-0.127,-0.007l-0.128,-0.008l-0.127,-0.008l-0.127,-0.009l-0.127,-0.01l-0.126,-0.011l-0.127,-0.012l-0.126,-0.012l-0.126,-0.014l-0.125,-0.014l-0.126,-0.014l-0.125,-0.016l-0.125,-0.016l-0.124,-0.017l-0.125,-0.018l-0.124,-0.019l-0.124,-0.019l-0.124,-0.02l-0.123,-0.021l-0.123,-0.022l-0.123,-0.022l-0.123,-0.023l-0.122,-0.024l-0.123,-0.025l-0.121,-0.025l-0.122,-0.026l-0.121,-0.027l-0.121,-0.028l-0.121,-0.028l-0.121,-0.029l-0.12,-0.03l-0.12,-0.03l-0.119,-0.031l-0.12,-0.032l-0.119,-0.033l-0.119,-0.033l-0.118,-0.034l-0.118,-0.035l-0.118,-0.036l-0.118,-0.036l-0.117,-0.037l-0.117,-0.037l-0.116,-0.039l-0.117,-0.039l-0.116,-0.039l-0.115,-0.041l-0.116,-0.041l-0.115,-0.041l-0.114,-0.043l-0.115,-0.043l-0.114,-0.044l-0.113,-0.044l-0.227,-0.091l-0.225,-0.094l-0.223,-0.096l-0.223,-0.099l-0.22,-0.101l-0.22,-0.104l-0.217,-0.107l-0.217,-0.109l-0.215,-0.112l-0.213,-0.114l-0.212,-0.117l-0.21,-0.119l-0.208,-0.122l-0.207,-0.124l-0.206,-0.127l-0.204,-0.129l-0.202,-0.131l-0.2,-0.134l-0.199,-0.136l-0.197,-0.138l-0.195,-0.141l-0.193,-0.142l-0.192,-0.146l-0.19,-0.147l-0.188,-0.15l-0.186,-0.151l-0.184,-0.154l-0.183,-0.157l-0.18,-0.158l-0.179,-0.16l-0.176,-0.163l-0.175,-0.164l-0.173,-0.167l-0.17,-0.169l-0.169,-0.17l-0.167,-0.173l-0.164,-0.175l-0.163,-0.176l-0.16,-0.179l-0.158,-0.18l-0.157,-0.183l-0.154,-0.184l-0.151,-0.186l-0.15,-0.188l-0.147,-0.19l-0.146,-0.192l-0.142,-0.193l-0.141,-0.195l-0.138,-0.197l-0.136,-0.199l-0.134,-0.2l-0.131,-0.202l-0.129,-0.204l-0.127,-0.206l-0.124,-0.207l-0.122,-0.208l-0.119,-0.21l-0.117,-0.212l-0.114,-0.213l-0.112,-0.215l-0.109,-0.217l-0.107,-0.217l-0.104,-0.22l-0.101,-0.22l-0.099,-0.223l-0.096,-0.223l-0.094,-0.225l-0.091,-0.227l-0.044,-0.113l-0.044,-0.114l-0.043,-0.115l-0.043,-0.114l-0.041,-0.115l-0.041,-0.116l-0.041,-0.115l-0.039,-0.116l-0.039,-0.117l-0.039,-0.116l-0.037,-0.117l-0.037,-0.117l-0.036,-0.118l-0.036,-0.118l-0.035,-0.118l-0.034,-0.118l-0.033,-0.119l-0.033,-0.119l-0.032,-0.12l-0.031,-0.119l-0.03,-0.12l-0.03,-0.12l-0.029,-0.121l-0.028,-0.121l-0.028,-0.121l-0.027,-0.121l-0.026,-0.122l-0.025,-0.121l-0.025,-0.123l-0.024,-0.122l-0.023,-0.123l-0.022,-0.123l-0.022,-0.123l-0.021,-0.123l-0.02,-0.124l-0.019,-0.124l-0.019,-0.124l-0.018,-0.125l-0.017,-0.124l-0.016,-0.125l-0.016,-0.125l-0.014,-0.126l-0.014,-0.125l-0.014,-0.126l-0.012,-0.126l-0.012,-0.127l-0.011,-0.126l-0.01,-0.127l-0.009,-0.127l-0.008,-0.127l-0.008,-0.128l-0.007,-0.127l-0.006,-0.128l-0.005,-0.128l-0.005,-0.129l-0.003,-0.128l-0.003,-0.129l-0.002,-0.129l-0.002,-0.129l0,-0.129l0,-0.129l0.002,-0.129l0.002,-0.129l0.003,-0.129l0.003,-0.128l0.005,-0.129l0.005,-0.128l0.006,-0.128l0.007,-0.127l0.008,-0.128l0.008,-0.127l0.009,-0.127l0.01,-0.127l0.011,-0.126l0.012,-0.127l0.012,-0.126l0.014,-0.126l0.014,-0.125l0.014,-0.126l0.016,-0.125l0.016,-0.125l0.017,-0.124l0.018,-0.125l0.019,-0.124l0.019,-0.124l0.02,-0.124l0.021,-0.123l0.022,-0.123l0.022,-0.123l0.023,-0.123l0.024,-0.122l0.025,-0.123l0.025,-0.121l0.026,-0.122l0.027,-0.121l0.028,-0.121l0.028,-0.121l0.029,-0.121l0.03,-0.12l0.03,-0.12l0.031,-0.119l0.032,-0.12l0.033,-0.119l0.033,-0.119l0.034,-0.118l0.035,-0.118l0.036,-0.118l0.036,-0.118l0.037,-0.117l0.037,-0.117l0.039,-0.116l0.039,-0.117l0.039,-0.116l0.041,-0.115l0.041,-0.116l0.041,-0.115l0.043,-0.114l0.043,-0.115l0.044,-0.114l0.044,-0.113l0.091,-0.227l0.094,-0.225l0.096,-0.223l0.099,-0.223l0.101,-0.22l0.104,-0.22l0.107,-0.217l0.109,-0.217l0.112,-0.215l0.114,-0.213l0.117,-0.212l0.119,-0.21l0.122,-0.208l0.124,-0.207l0.127,-0.206l0.129,-0.204l0.131,-0.202l0.134,-0.2l0.136,-0.199l0.138,-0.197l0.141,-0.195l0.142,-0.193l0.146,-0.192l0.147,-0.19l0.15,-0.188l0.151,-0.186l0.154,-0.184l0.157,-0.183l0.158,-0.18l0.16,-0.179l0.163,-0.176l0.164,-0.175l0.167,-0.173l0.169,-0.17l0.17,-0.169l0.173,-0.167l0.175,-0.164l0.176,-0.163l0.179,-0.16l0.18,-0.158l0.183,-0.157l0.184,-0.154l0.186,-0.151l0.188,-0.15l0.19,-0.147l0.192,-0.146l0.193,-0.142l0.195,-0.141l0.197,-0.138l0.199,-0.136l0.2,-0.134l0.202,-0.131l0.204,-0.129l0.206,-0.127l0.207,-0.124l0.208,-0.122l0.21,-0.119l0.212,-0.117l0.213,-0.114l0.215,-0.112l0.217,-0.109l0.217,-0.107l0.22,-0.104l0.22,-0.101l0.223,-0.099l0.223,-0.096l0.225,-0.094l0.227,-0.091l0.113,-0.044l0.114,-0.044l0.115,-0.043l0.114,-0.043l0.115,-0.041l0.116,-0.041l0.115,-0.041l0.116,-0.039l0.117,-0.039l0.116,-0.039l0.117,-0.037l0.117,-0.037l0.118,-0.036l0.118,-0.036l0.118,-0.035l0.118,-0.034l0.119,-0.033l0.119,-0.033l0.12,-0.032l0.119,-0.031l0.12,-0.03l0.12,-0.03l0.121,-0.029l0.121,-0.028l0.121,-0.028l0.121,-0.027l0.122,-0.026l0.121,-0.025l0.123,-0.025l0.122,-0.024l0.123,-0.023l0.123,-0.022l0.123,-0.022l0.123,-0.021l0.124,-0.02l0.124,-0.019l0.124,-0.019l0.125,-0.018l0.124,-0.017l0.125,-0.016l0.125,-0.016l0.126,-0.014l0.125,-0.014l0.126,-0.014l0.126,-0.012l0.127,-0.012l0.126,-0.011l0.127,-0.01l0.127,-0.009l0.127,-0.008l0.128,-0.008l0.127,-0.007l0.128,-0.006l0.128,-0.005l0.129,-0.005l0.128,-0.003l0.129,-0.003l0.129,-0.002l0.129,-0.002l0.129,0l0.129,0Zm-0.244,2.2l-0.115,0.001l-0.115,0.002l-0.115,0.003l-0.115,0.003l-0.114,0.004l-0.114,0.005l-0.114,0.005l-0.114,0.006l-0.113,0.007l-0.114,0.008l-0.113,0.008l-0.113,0.009l-0.112,0.01l-0.113,0.01l-0.112,0.011l-0.112,0.012l-0.112,0.012l-0.112,0.013l-0.111,0.014l-0.111,0.015l-0.111,0.015l-0.111,0.016l-0.11,0.016l-0.111,0.018l-0.11,0.017l-0.11,0.019l-0.109,0.019l-0.109,0.02l-0.11,0.021l-0.108,0.021l-0.109,0.022l-0.108,0.022l-0.109,0.024l-0.107,0.024l-0.108,0.024l-0.108,0.025l-0.107,0.026l-0.107,0.026l-0.106,0.028l-0.107,0.027l-0.106,0.029l-0.105,0.029l-0.106,0.029l-0.105,0.031l-0.105,0.031l-0.105,0.031l-0.105,0.032l-0.104,0.033l-0.104,0.034l-0.104,0.034l-0.103,0.034l-0.103,0.036l-0.103,0.035l-0.102,0.037l-0.103,0.037l-0.102,0.038l-0.101,0.038l-0.102,0.039l-0.098,0.038l-0.204,0.083l-0.2,0.083l-0.199,0.085l-0.198,0.088l-0.196,0.091l-0.195,0.092l-0.194,0.095l-0.192,0.097l-0.192,0.1l-0.189,0.101l-0.189,0.104l-0.187,0.106l-0.185,0.109l-0.185,0.11l-0.182,0.113l-0.182,0.115l-0.18,0.116l-0.178,0.119l-0.177,0.122l-0.175,0.123l-0.174,0.125l-0.172,0.127l-0.171,0.129l-0.169,0.132l-0.167,0.133l-0.166,0.135l-0.164,0.137l-0.163,0.139l-0.161,0.141l-0.159,0.143l-0.157,0.145l-0.156,0.147l-0.154,0.148l-0.152,0.15l-0.15,0.152l-0.148,0.154l-0.147,0.156l-0.145,0.157l-0.143,0.159l-0.141,0.161l-0.139,0.163l-0.137,0.164l-0.135,0.166l-0.133,0.167l-0.132,0.169l-0.129,0.171l-0.127,0.172l-0.125,0.174l-0.123,0.175l-0.122,0.177l-0.119,0.178l-0.116,0.18l-0.115,0.182l-0.113,0.182l-0.11,0.185l-0.109,0.185l-0.106,0.187l-0.104,0.189l-0.101,0.189l-0.1,0.192l-0.097,0.192l-0.095,0.194l-0.092,0.195l-0.091,0.196l-0.088,0.198l-0.085,0.199l-0.083,0.2l-0.083,0.204l-0.038,0.098l-0.039,0.102l-0.038,0.101l-0.038,0.102l-0.037,0.103l-0.037,0.102l-0.035,0.103l-0.036,0.103l-0.034,0.103l-0.034,0.104l-0.034,0.104l-0.033,0.104l-0.032,0.105l-0.031,0.105l-0.031,0.105l-0.031,0.105l-0.029,0.106l-0.029,0.105l-0.029,0.106l-0.027,0.107l-0.028,0.106l-0.026,0.107l-0.026,0.107l-0.025,0.108l-0.024,0.108l-0.024,0.107l-0.024,0.109l-0.022,0.108l-0.022,0.109l-0.021,0.108l-0.021,0.11l-0.02,0.109l-0.019,0.109l-0.019,0.11l-0.017,0.11l-0.018,0.111l-0.016,0.11l-0.016,0.111l-0.015,0.111l-0.015,0.111l-0.014,0.111l-0.013,0.112l-0.012,0.112l-0.012,0.112l-0.011,0.112l-0.01,0.113l-0.01,0.112l-0.009,0.113l-0.008,0.113l-0.008,0.114l-0.007,0.113l-0.006,0.114l-0.005,0.114l-0.005,0.114l-0.004,0.114l-0.003,0.115l-0.003,0.115l-0.002,0.115l-0.001,0.115l0,0.115l0,0.115l0.001,0.115l0.002,0.115l0.003,0.115l0.003,0.115l0.004,0.114l0.005,0.114l0.005,0.114l0.006,0.114l0.007,0.113l0.008,0.114l0.008,0.113l0.009,0.113l0.01,0.112l0.01,0.113l0.011,0.112l0.012,0.112l0.012,0.112l0.013,0.112l0.014,0.111l0.015,0.111l0.015,0.111l0.016,0.111l0.016,0.11l0.018,0.111l0.017,0.11l0.019,0.11l0.019,0.109l0.02,0.109l0.021,0.11l0.021,0.108l0.022,0.109l0.022,0.108l0.024,0.109l0.024,0.107l0.024,0.108l0.025,0.108l0.026,0.107l0.026,0.107l0.028,0.106l0.027,0.107l0.029,0.106l0.029,0.105l0.029,0.106l0.031,0.105l0.031,0.105l0.031,0.105l0.032,0.105l0.033,0.104l0.034,0.104l0.034,0.104l0.034,0.103l0.036,0.103l0.035,0.103l0.037,0.102l0.037,0.103l0.038,0.102l0.038,0.101l0.039,0.102l0.038,0.098l0.083,0.204l0.083,0.2l0.085,0.199l0.088,0.198l0.091,0.196l0.092,0.195l0.095,0.194l0.097,0.192l0.1,0.192l0.101,0.189l0.104,0.189l0.106,0.187l0.109,0.185l0.11,0.185l0.113,0.182l0.115,0.182l0.116,0.18l0.119,0.178l0.122,0.177l0.123,0.175l0.125,0.174l0.127,0.172l0.129,0.171l0.132,0.169l0.133,0.167l0.135,0.166l0.137,0.164l0.139,0.163l0.141,0.161l0.143,0.159l0.145,0.157l0.147,0.156l0.148,0.154l0.15,0.152l0.152,0.15l0.154,0.148l0.156,0.147l0.157,0.145l0.159,0.143l0.161,0.141l0.163,0.139l0.164,0.137l0.166,0.135l0.167,0.133l0.169,0.132l0.171,0.129l0.172,0.127l0.174,0.125l0.175,0.123l0.177,0.122l0.178,0.119l0.18,0.116l0.182,0.115l0.182,0.113l0.185,0.11l0.185,0.109l0.187,0.106l0.189,0.104l0.189,0.101l0.192,0.1l0.192,0.097l0.194,0.095l0.195,0.092l0.196,0.091l0.198,0.088l0.199,0.085l0.2,0.083l0.204,0.083l0.098,0.038l0.102,0.039l0.101,0.038l0.102,0.038l0.103,0.037l0.102,0.037l0.103,0.035l0.103,0.036l0.103,0.034l0.104,0.034l0.104,0.034l0.104,0.033l0.105,0.032l0.105,0.031l0.105,0.031l0.105,0.031l0.106,0.029l0.105,0.029l0.107,0.029l0.106,0.027l0.106,0.028l0.107,0.026l0.108,0.026l0.107,0.025l0.108,0.024l0.107,0.024l0.109,0.024l0.108,0.022l0.109,0.022l0.108,0.021l0.11,0.021l0.109,0.02l0.109,0.019l0.11,0.019l0.11,0.017l0.111,0.018l0.11,0.016l0.111,0.016l0.111,0.015l0.111,0.015l0.111,0.014l0.112,0.013l0.112,0.012l0.112,0.012l0.112,0.011l0.113,0.01l0.112,0.01l0.113,0.009l0.113,0.008l0.114,0.008l0.113,0.007l0.114,0.006l0.114,0.005l0.114,0.005l0.114,0.004l0.115,0.003l0.115,0.003l0.115,0.002l0.115,0.001l0.115,0l0.115,0l0.115,-0.001l0.115,-0.002l0.115,-0.003l0.115,-0.003l0.114,-0.004l0.114,-0.005l0.114,-0.005l0.114,-0.006l0.113,-0.007l0.114,-0.008l0.113,-0.008l0.113,-0.009l0.112,-0.01l0.113,-0.01l0.112,-0.011l0.112,-0.012l0.112,-0.012l0.112,-0.013l0.111,-0.014l0.111,-0.015l0.111,-0.015l0.111,-0.016l0.11,-0.016l0.111,-0.018l0.11,-0.017l0.11,-0.019l0.109,-0.019l0.109,-0.02l0.11,-0.021l0.108,-0.021l0.109,-0.022l0.108,-0.022l0.109,-0.024l0.107,-0.024l0.108,-0.024l0.107,-0.025l0.108,-0.026l0.107,-0.026l0.106,-0.028l0.107,-0.027l0.106,-0.029l0.105,-0.029l0.106,-0.029l0.105,-0.031l0.105,-0.031l0.105,-0.031l0.105,-0.032l0.104,-0.033l0.104,-0.034l0.104,-0.034l0.103,-0.034l0.103,-0.036l0.103,-0.035l0.102,-0.037l0.103,-0.037l0.102,-0.038l0.101,-0.038l0.102,-0.039l0.098,-0.038l0.204,-0.083l0.2,-0.083l0.199,-0.085l0.198,-0.088l0.196,-0.091l0.195,-0.092l0.194,-0.095l0.192,-0.097l0.192,-0.1l0.189,-0.101l0.189,-0.104l0.187,-0.106l0.185,-0.109l0.185,-0.11l0.182,-0.113l0.182,-0.115l0.18,-0.116l0.178,-0.119l0.177,-0.122l0.175,-0.123l0.174,-0.125l0.172,-0.127l0.171,-0.129l0.169,-0.132l0.167,-0.133l0.166,-0.135l0.164,-0.137l0.163,-0.139l0.161,-0.141l0.159,-0.143l0.157,-0.145l0.156,-0.147l0.154,-0.148l0.152,-0.15l0.15,-0.152l0.148,-0.154l0.147,-0.156l0.145,-0.157l0.143,-0.159l0.141,-0.161l0.139,-0.163l0.137,-0.164l0.135,-0.166l0.133,-0.167l0.132,-0.169l0.129,-0.171l0.127,-0.172l0.125,-0.174l0.123,-0.175l0.122,-0.177l0.119,-0.178l0.116,-0.18l0.115,-0.182l0.113,-0.182l0.11,-0.185l0.109,-0.185l0.106,-0.187l0.104,-0.189l0.101,-0.189l0.1,-0.192l0.097,-0.192l0.095,-0.194l0.092,-0.195l0.091,-0.196l0.088,-0.198l0.085,-0.199l0.083,-0.2l0.083,-0.204l0.038,-0.098l0.039,-0.102l0.038,-0.101l0.038,-0.102l0.037,-0.103l0.037,-0.102l0.035,-0.103l0.036,-0.103l0.034,-0.103l0.034,-0.104l0.034,-0.104l0.033,-0.104l0.032,-0.105l0.031,-0.105l0.031,-0.105l0.031,-0.105l0.029,-0.106l0.029,-0.105l0.029,-0.106l0.027,-0.107l0.028,-0.106l0.026,-0.107l0.026,-0.108l0.025,-0.107l0.024,-0.108l0.024,-0.107l0.024,-0.109l0.022,-0.108l0.022,-0.109l0.021,-0.108l0.021,-0.11l0.02,-0.109l0.019,-0.109l0.019,-0.11l0.017,-0.11l0.018,-0.111l0.016,-0.11l0.016,-0.111l0.015,-0.111l0.015,-0.111l0.014,-0.111l0.013,-0.112l0.012,-0.112l0.012,-0.112l0.011,-0.112l0.01,-0.113l0.01,-0.112l0.009,-0.113l0.008,-0.113l0.008,-0.114l0.007,-0.113l0.006,-0.114l0.005,-0.114l0.005,-0.114l0.004,-0.114l0.003,-0.115l0.003,-0.115l0.002,-0.115l0.001,-0.115l0,-0.115l0,-0.115l-0.001,-0.115l-0.002,-0.115l-0.003,-0.115l-0.003,-0.115l-0.004,-0.114l-0.005,-0.114l-0.005,-0.114l-0.006,-0.114l-0.007,-0.113l-0.008,-0.114l-0.008,-0.113l-0.009,-0.113l-0.01,-0.112l-0.01,-0.113l-0.011,-0.112l-0.012,-0.112l-0.012,-0.112l-0.013,-0.112l-0.014,-0.111l-0.015,-0.111l-0.015,-0.111l-0.016,-0.111l-0.016,-0.11l-0.018,-0.111l-0.017,-0.11l-0.019,-0.11l-0.019,-0.109l-0.02,-0.109l-0.021,-0.11l-0.021,-0.108l-0.022,-0.109l-0.022,-0.108l-0.024,-0.109l-0.024,-0.107l-0.024,-0.108l-0.025,-0.107l-0.026,-0.108l-0.026,-0.107l-0.028,-0.106l-0.027,-0.106l-0.029,-0.107l-0.029,-0.105l-0.029,-0.106l-0.031,-0.105l-0.031,-0.105l-0.031,-0.105l-0.032,-0.105l-0.033,-0.104l-0.034,-0.104l-0.034,-0.104l-0.034,-0.103l-0.036,-0.103l-0.035,-0.103l-0.037,-0.102l-0.037,-0.103l-0.038,-0.102l-0.038,-0.101l-0.039,-0.102l-0.038,-0.098l-0.083,-0.204l-0.083,-0.2l-0.085,-0.199l-0.088,-0.198l-0.091,-0.196l-0.092,-0.195l-0.095,-0.194l-0.097,-0.192l-0.1,-0.192l-0.101,-0.189l-0.104,-0.189l-0.106,-0.187l-0.109,-0.185l-0.11,-0.185l-0.113,-0.182l-0.115,-0.182l-0.116,-0.18l-0.119,-0.178l-0.122,-0.177l-0.123,-0.175l-0.125,-0.174l-0.127,-0.172l-0.129,-0.171l-0.132,-0.169l-0.133,-0.167l-0.135,-0.166l-0.137,-0.164l-0.139,-0.163l-0.141,-0.161l-0.143,-0.159l-0.145,-0.157l-0.147,-0.156l-0.148,-0.154l-0.15,-0.152l-0.152,-0.15l-0.154,-0.148l-0.156,-0.147l-0.157,-0.145l-0.159,-0.143l-0.161,-0.141l-0.163,-0.139l-0.164,-0.137l-0.166,-0.135l-0.167,-0.133l-0.169,-0.132l-0.171,-0.129l-0.172,-0.127l-0.174,-0.125l-0.175,-0.123l-0.177,-0.122l-0.178,-0.119l-0.18,-0.116l-0.182,-0.115l-0.182,-0.113l-0.185,-0.11l-0.185,-0.109l-0.187,-0.106l-0.189,-0.104l-0.189,-0.101l-0.192,-0.1l-0.192,-0.097l-0.194,-0.095l-0.195,-0.092l-0.196,-0.091l-0.198,-0.088l-0.199,-0.085l-0.2,-0.083l-0.204,-0.083l-0.098,-0.038l-0.102,-0.039l-0.101,-0.038l-0.102,-0.038l-0.103,-0.037l-0.102,-0.037l-0.103,-0.035l-0.103,-0.036l-0.103,-0.034l-0.104,-0.034l-0.104,-0.034l-0.104,-0.033l-0.105,-0.032l-0.105,-0.031l-0.105,-0.031l-0.105,-0.031l-0.106,-0.029l-0.105,-0.029l-0.106,-0.029l-0.107,-0.027l-0.106,-0.028l-0.107,-0.026l-0.107,-0.026l-0.108,-0.025l-0.108,-0.024l-0.107,-0.024l-0.109,-0.024l-0.108,-0.022l-0.109,-0.022l-0.108,-0.021l-0.11,-0.021l-0.109,-0.02l-0.109,-0.019l-0.11,-0.019l-0.11,-0.017l-0.111,-0.018l-0.11,-0.016l-0.111,-0.016l-0.111,-0.015l-0.111,-0.015l-0.111,-0.014l-0.112,-0.013l-0.112,-0.012l-0.112,-0.012l-0.112,-0.011l-0.113,-0.01l-0.112,-0.01l-0.113,-0.009l-0.113,-0.008l-0.114,-0.008l-0.113,-0.007l-0.114,-0.006l-0.114,-0.005l-0.114,-0.005l-0.114,-0.004l-0.115,-0.003l-0.115,-0.003l-0.115,-0.002l-0.115,-0.001l-0.115,0l-0.115,0Z"/></g></svg>